<svg xmlns="http://www.w3.org/2000/svg" width="30" height="24" viewBox="0 0 30 24">
  <path fill="#fff" d="M0 8h30v8H0z"/>
  <path fill="#81acdc" d="M30 8H0V0h30zm0 16H0v-8h30z"/>
  <path fill="#edb840" d="m18.51 11.94-.04-.01-1.94-.07.24-.09c.18-.06.35-.13.56-.1.32.02.54-.1.7-.19q.08-.05.15-.07.13-.03.2.01.06.03.1-.01.02-.02 0-.08-.09-.1-.37-.09l-.22.08c-.12.06-.27.12-.6.1q-.3-.04-.6.08-.12.05-.27.07l1.81-.83.04-.02q.03-.04.02-.08l-.03-.04h-.08l-1.82.68.2-.17q.18-.2.46-.31c.31-.1.47-.3.58-.44l.1-.12a.3.3 0 0 1 .2-.07q.07.01.1-.05 0-.03-.05-.06-.1-.07-.37.05l-.17.15c-.1.1-.2.22-.52.33-.25.08-.39.19-.51.3l-.23.17L17.5 9.6q.06-.05.02-.12l-.05-.02q-.05.01-.07.04l-1.42 1.32.11-.23q.1-.27.32-.47c.25-.21.32-.45.37-.63l.05-.15a.3.3 0 0 1 .15-.14q.07-.02.07-.08 0-.03-.06-.04-.14-.03-.32.19l-.1.2c-.05.14-.1.28-.36.5q-.24.2-.36.48l-.15.25.7-1.87q.03-.07-.04-.12h-.04l-.06.06-.8 1.76.01-.25q-.02-.29.11-.56c.15-.28.12-.53.1-.71v-.17a.3.3 0 0 1 .08-.18q.06-.05.03-.1-.01-.02-.07-.02-.14.03-.23.3-.02.12-.01.23c0 .14.01.3-.14.6q-.15.26-.15.57 0 .15-.04.29l-.08-2q0-.07-.07-.09-.04 0-.06.05l-.01.04-.07 1.94-.09-.24q-.11-.26-.1-.56a1.2 1.2 0 0 0-.19-.7l-.07-.14q-.03-.14.01-.2.04-.07-.01-.11-.03-.01-.07.01-.12.08-.1.36l.08.22c.06.13.13.27.1.6-.02.27.03.44.08.6q.05.13.07.28l-.83-1.82q-.04-.07-.1-.06-.04.02-.04.08v.04l.68 1.81-.17-.19q-.2-.19-.31-.47c-.1-.3-.3-.46-.44-.58l-.12-.1a.3.3 0 0 1-.07-.2q.01-.07-.05-.09-.03-.01-.06.04-.07.12.05.37l.15.17c.1.1.22.2.33.52.08.26.2.39.3.51q.1.11.17.24L12.6 9.5q-.05-.06-.12-.01-.03.03 0 .08l.02.03 1.32 1.42-.23-.11a1 1 0 0 1-.47-.31 1 1 0 0 0-.63-.37l-.15-.06a.3.3 0 0 1-.14-.15c-.02-.03-.04-.08-.08-.06q-.03 0-.04.06-.03.13.19.32l.2.1c.13.05.28.1.5.36.18.2.33.28.48.36q.13.05.25.14l-1.87-.69q-.07-.03-.12.03v.05q.04.05.06.05l1.76.81-.25-.02c-.2 0-.37 0-.56-.1a1 1 0 0 0-.71-.1h-.17q-.14-.02-.18-.08-.05-.06-.1-.03-.02 0-.02.07.03.14.3.22.11.02.23.02c.14 0 .3-.01.6.14.23.12.4.13.57.15q.14 0 .29.04l-2 .07q-.07 0-.09.08l.02.04q.05.04.07.03l1.94.07-.24.08q-.26.12-.56.11c-.32-.03-.54.1-.7.18l-.15.08q-.12.02-.2-.01-.06-.04-.1.01-.01.02.01.07.08.11.36.1l.22-.08c.13-.06.27-.13.6-.1.27.02.44-.03.6-.08q.12-.06.28-.08l-1.82.84q-.07.02-.06.1.02.04.07.04l.04-.01 1.82-.67-.19.16q-.19.21-.47.32c-.3.1-.46.3-.58.43l-.1.13a.3.3 0 0 1-.2.07q-.07-.01-.09.05-.01.02.04.06.1.07.37-.05l.17-.16c.1-.1.2-.22.52-.32.26-.08.39-.2.51-.3q.1-.09.24-.18l-1.36 1.47q-.06.05-.02.11l.02.02h.07l.03-.03 1.42-1.32-.11.23a1 1 0 0 1-.32.47c-.25.2-.31.45-.37.62l-.05.16q-.07.1-.15.14-.07.02-.06.08 0 .03.06.04.12.03.32-.2l.1-.2c.04-.13.1-.28.36-.5.2-.17.28-.32.35-.47l.15-.25-.7 1.87q-.01.08.04.12h.05q.05-.04.05-.06l.8-1.77v.26c-.01.19-.02.37-.12.56-.15.28-.12.53-.1.71l.01.17q-.02.13-.09.18-.05.05-.02.1 0 .02.07.02c.07-.02.18-.12.22-.3l.02-.23a1 1 0 0 1 .14-.6c.12-.24.13-.4.14-.57q0-.15.05-.3l.07 2q0 .09.07.1.05 0 .07-.06v-.04l.08-1.94.08.25q.12.26.11.55c-.03.33.1.54.18.7l.07.15c.03.09 0 .16 0 .2q-.04.07 0 .1l.03.01.05-.01c.06-.05.12-.18.09-.37l-.07-.21c-.06-.13-.13-.27-.1-.61q.01-.3-.09-.59l-.07-.28.83 1.81.03.04q.03.05.08.02l.03-.03q.02-.05 0-.08l-.68-1.82.17.2q.2.19.32.47c.1.3.29.46.43.58l.13.1a.3.3 0 0 1 .06.2q-.02.07.06.09.02 0 .06-.04.07-.12-.06-.37l-.15-.17c-.1-.1-.22-.2-.32-.53-.09-.25-.2-.38-.3-.5l-.18-.24 1.47 1.36q.05.06.11.01.03-.03.01-.08l-.02-.03-1.32-1.43.23.12c.17.08.33.15.47.31.2.25.45.32.62.37l.16.06q.11.07.13.15.03.05.07.06h.02q.02 0 .04-.06.03-.13-.2-.32l-.2-.1c-.13-.05-.28-.1-.5-.36a1.3 1.3 0 0 0-.47-.36l-.25-.14 1.87.69q.08.03.11-.03v-.05q-.03-.05-.06-.05l-1.76-.81.26.01c.19.01.37.02.55.12.29.15.54.12.72.1l.16-.01q.14.02.19.09l.07.03h.03q.02-.02.02-.08-.03-.14-.3-.22-.13-.03-.23-.02c-.14 0-.3.02-.6-.14a1.3 1.3 0 0 0-.58-.15q-.15 0-.29-.04l2-.07q.08 0 .1-.07 0-.06-.06-.07"/>
</svg>
