<svg xmlns="http://www.w3.org/2000/svg" width="30" height="24" viewBox="0 0 30 24">
  <path fill="#fff" d="M0 0h30v24H0z"/>
  <path fill="#a62842" d="M30 22.15V24H0v-1.85zm0-3.69v1.85H0v-1.85zm0-3.7v1.85H0v-1.84zm0-3.68v1.84H0v-1.84zm0-3.7v1.85H0V7.38zm0-3.69v1.85H0V3.69zM30 0v1.85H0V0z"/>
  <path fill="#102d5e" d="M0 0h15v12.92H0z"/>
  <path fill="#fff" d="m3.6 3.46.6-.43h-.74l-.22-.7-.23.7h-.73l.59.43-.23.7.6-.43.59.43zm2.98 0 .6-.43h-.74l-.23-.7-.22.7h-.73l.59.43-.23.7.6-.43.59.43zm2.98 0 .6-.43h-.74l-.23-.7-.22.7h-.73l.59.43-.23.7.6-.43.58.43zm-4.5 1.82.6-.43h-.73l-.23-.7-.23.7h-.73l.6.43-.23.7.6-.43.58.43zm2.99 0 .59-.43H7.9l-.23-.7-.23.7h-.73l.6.43-.23.7.59-.43.6.43zm2.97 0 .6-.43h-.73l-.23-.7-.23.7H9.7l.6.43-.23.7.59-.43.6.43zM5.08 8.92l.59-.43h-.73l-.23-.7-.23.7h-.73l.6.43-.23.7.6-.43.58.43zm2.98 0 .59-.43H7.9l-.23-.7-.23.7h-.73l.6.43-.23.7.59-.43.6.43zm2.97 0 .6-.43h-.73l-.23-.7-.23.7H9.7l.6.43-.23.7.59-.43.6.43zm1.52-5.46.59-.43h-.73l-.23-.7-.22.7h-.73l.59.43-.23.7.6-.43.59.43zM3.6 7.1l.6-.43h-.74l-.22-.7-.23.7h-.73l.59.43-.23.7.6-.43.59.43zm2.98 0 .6-.43h-.74l-.23-.7-.22.7h-.73l.59.43-.23.7.6-.43.59.43zm2.98 0 .6-.43h-.74l-.23-.7-.22.7h-.73l.59.43-.23.7.6-.43.58.43zm2.98 0 .59-.43h-.73l-.23-.7-.22.7h-.73l.59.43-.23.7.6-.43.59.43zM3.6 10.74l.6-.43h-.74l-.22-.7-.23.7h-.73l.59.43-.23.7.6-.43.59.43zm2.98 0 .6-.43h-.74l-.23-.7-.22.7h-.73l.59.43-.23.7.6-.43.59.43zm2.98 0 .6-.43h-.74l-.23-.7-.22.7h-.73l.59.43-.23.7.6-.43.58.43zm2.98 0 .59-.43h-.73l-.23-.7-.22.7h-.73l.59.43-.23.7.6-.43.59.43z"/>
</svg>
